<?xml version="1.0" encoding="UTF-8"?>
<svg id="Layer_1" xmlns="http://www.w3.org/2000/svg" version="1.1" viewBox="0 0 1080 1080">
  <!-- Generator: Adobe Illustrator 30.2.1, SVG Export Plug-In . SVG Version: 2.1.1 Build 1)  -->
  <defs>
    <style>
      .st0 {
        fill: #09223f;
      }

      .st1 {
        font-family: Poppins-SemiBold, Poppins;
        font-size: 36px;
        font-weight: 600;
      }

      .st1, .st2 {
        isolation: isolate;
      }

      .st3 {
        fill: #9c9c9d;
      }
    </style>
  </defs>
  <g>
    <g>
      <path class="st0" d="M69.16,497.6c.52-.76.94-1.65,1.59-2.29,16.02-16.06,32.05-32.14,48.15-48.12,1.27-1.25,1.38-2.18.66-3.71-2.69-5.78-5.24-11.62-7.96-17.71.82-.04,1.34-.08,1.87-.08,35.99,0,71.98-.02,107.96.04,1.21,0,2.76.53,3.6,1.36,19.97,19.81,39.84,39.7,59.78,59.54,1.13,1.11,1.53,2.24,1.53,3.81-.04,31.45-.02,62.89-.02,94.35v2.77c-1.36-.5-2.55-.91-3.7-1.38-4.62-1.94-9.2-3.97-13.85-5.84-1.36-.55-1.73-1.3-1.71-2.71.06-11.99.03-24,.03-35.99v-2.63c-1.56.94-2.99,1.56-4.11,2.55-.58.51-.86,1.64-.86,2.49-.06,11.1-.12,22.21.01,33.31.03,2.42-.76,4.01-2.45,5.68-15.88,15.75-31.67,31.6-47.55,47.36-1.24,1.23-1.36,2.2-.69,3.72,2.2,5.12,4.28,10.3,6.31,15.75-.08.83-.08,1.36-.08,2.1h-102.7c-2.51,0-5.02-.04-7.53-.08-18.93-18.9-37.84-37.8-56.76-56.7-1.66-1.66-3.31-3.34-5.01-5.39-.03-9.38-.02-18.37,0-27.37.02-23.9.04-47.79.06-71.69,5.8,2.2,11.64,4.36,17.4,6.71.6.25,1.04,1.65,1.04,2.51.08,12.15.06,24.3.08,36.44v2.65c1.85-1.19,3.36-2.18,5.16-3.41.38-.61.57-.99.57-1.38.01-11.62.02-23.23-.02-34.84,0-.62-.49-1.23-.76-1.85M111.93,587.28c9.79,10.85,21.76,18.18,35.9,22.25,1.41-3.08,2.77-6.05,4.18-9.11,9.25,1.91,18.3,2.24,27.45-.15.76,1.63,1.5,3.15,2.2,4.69.7,1.52,1.38,3.06,2.16,4.79,26.69-8.68,44.17-25.99,52.25-52.91-3.15-1.48-6.06-2.85-8.96-4.21-.03-.29-.11-.55-.06-.76,1.77-8.19,1.8-16.39.12-24.6-.12-.57.49-1.63,1.05-1.93,2.45-1.36,5.04-2.52,7.52-3.73-6.27-26.8-29.76-47.47-52.19-52.4-1.36,2.96-2.73,5.95-4.14,9.04-9.15-2.37-18.2-2.2-27.4,0-1.41-3.13-2.77-6.2-4.13-9.2-25.85,6.22-47,29.16-52.21,52.59,2.9,1.42,5.84,2.86,8.8,4.3-2.24,8.99-1.99,17.81-.01,26.57-3.11,1.5-6,2.9-8.99,4.36,2.99,11.5,8.29,21.55,16.46,30.44h-.01.01v-.03Z"/>
      <path class="st0" d="M503.2,492.15c.08,4.07-.13,8.11.15,12.15.27,3.99-.78,7.4-3,10.67-2.27,3.34-4.53,6.78-3.95,11.17.06.39.1.78.19,1.46,1.69.08,3.37.29,5.04.16.6-.04,1.29-.8,1.67-1.4,2.45-3.9,4.83-7.83,7.73-11.69,0,1.62-.16,3.25.02,4.85-.02,10.69-3.47,18.51-7.03,28.98-2.18,3.29-3.69,7.02-5.69,10.43-1.67,2.84-2.55,5.73-1.64,9.29,1.54,0,3.23.12,4.89-.06.62-.06,1.34-.72,1.73-1.3,2.45-3.85,4.83-7.76,7.71-11.5,0,6.6.01,13.2-.02,19.78,0,.52-.31,1.07-.58,1.56-.37.72-.73,1.48-1.25,2.08-5.25,6.07-6.75,13.13-5.92,20.96-.08,3.36,0,6.81.03,10.2-.13,2.37.41,4.26,2.51,5.93,1.09,1.46,2.2,2.53,3.04,3.78.64.93,1.33,2.08,1.34,3.15.11,8.99.03,17.97.08,26.95.01,1.91-.36,2.48-2.8,2.38-3.58-.14-7.92.14-11.37.06-2.72-.06-3.04-.35-3.01-2.53.1-6.87.06-13.76,0-20.63,0-.8-.57-1.62-.87-2.41-3.18-2.22-6.4-4.4-9.5-6.71-.64-.48-1.24-1.5-1.24-2.27-.06-32.88-.04-65.76.02-98.63,0-.82.52-1.97,1.17-2.41,4.77-3.29,6.25-7.71,5.58-13.36-.43-3.66-.08-7.39-.08-11.19h-19.43v7.47c0,1.05.13,2.12-.02,3.15-.82,5.78.51,10.6,5.64,13.99,1.55,1.23,1.13,3.62,1.13,5.78,0,4.81.04,8.86,0,13.39v1.41c-.06.88.03,1.34,0,2.7v2.29c.02.35,0,.51,0,1.13v6.54c.02,1.29,0,2.55.04,4.08-.04.8-.12,1.19-.04,1.67-.03,1.62.02,3.33,0,5.2.03.6,0,.97,0,1.32v1.58c-.08.72-.08,1.03,0,1.52M475.48,565.38c.02,3.39-.02,6.75-.16,10.4-.08.76,0,1.24.08,1.73.02,5.01.04,10.02-.13,15.34-.1,1.42,0,2.53.08,3.64.02,1.13.04,2.25-.12,3.69-.29,3.12-.43,5.93-.45,8.74,0,.72.41,1.44.62,2.16.02,2.48.04,4.97-.14,7.69-.29.41-.38.58-.47.74-2.87,1.95-5.69,4.01-8.64,5.82-1.46.9-1.83,1.94-1.83,3.55.08,7.13.02,14.27.02,21.39v2.28h-17.44v-114.69c-23.57,31.92-44.25,65.2-70.08,95.2,0-4.48-.22-8.7.13-12.88.1-1.27,1.75-2.41,2.74-3.66-18.23-25.76-36.46-51.52-54.79-77.61-.43-.29-1.07-.27-1.07-.25-.02,1.91,0,3.82.03,5.74.02.68.04,1.36-.08,2.3-.06.55,0,.83.06,1.11.02.22.04.43-.1.96-.08,3.13.01,5.95.1,8.76.02,12.22.06,24.43.08,36.65,0,18.93,0,37.86-.23,57.11-.93.43-1.63.64-2.34.64-19.51.02-39,0-58.51.04-1.83,0-2.35-.58-2.32-2.37.08-7.04.04-14.08.06-21.12,9.93-10,19.72-20.16,29.88-29.92,3.57-3.42,4.85-6.87,4.81-11.79-.22-33.31-.11-66.63-.06-99.94,0-1.66-.46-2.85-1.65-4.03-10.74-10.7-21.43-21.44-32.05-32.26-.85-.86-1.46-2.34-1.48-3.54-.15-6.65-.1-13.3-.11-19.95,0-.29.08-.58.17-1.13.78.53,1.36.9,1.92,1.32,11.87,9.01,23.74,18.03,35.58,27.09,1.21.93,2.37,2.01,3.25,3.23,26.6,36.83,53.17,73.7,79.75,110.56.33.46.64.93,1.19,1.75-4.99,3.62-6.2,8.62-4.73,14.8,3.27-3.97,6.62-7.65,9.55-11.64,10.94-14.97,21.74-30.06,32.58-45.1,16.86-23.38,33.74-46.76,50.63-70.12.9-1.22,1.97-2.39,3.17-3.31,12.16-9.3,24.37-18.55,36.56-27.81.31-.24.66-.45,1.19-.8.11.6.26,1.01.26,1.43,0,15.32.03,30.64-.06,45.96M381.53,592.07c-4.65,4.04-5.97,9.08-4.48,15.09,4.65-5.62,8.99-11.47,13.99-16.72,3.85-4.05,3.08-8.53,2.98-13.6-4.29,5.23-8.27,10.1-12.49,15.24h0Z"/>
      <path class="st0" d="M310.28,459.22c-4.63-8.68-12.85-13.31-20.07-18.95-6.13-4.79-12.36-9.43-18.93-14.42,1.03-.06,1.68-.14,2.32-.14,15.97-.01,31.95.01,47.92-.08,1.85,0,2.86.57,3.85,2.12,19.79,30.79,39.65,61.53,59.51,92.29.13.21.31.38.62.78,3.57-5.48,7.11-10.86,10.59-16.27,16.46-25.52,32.93-51.03,49.33-76.6,1.08-1.69,2.2-2.34,4.25-2.32,16.06.1,32.1.06,48.16.06h1.93c-.9.76-1.4,1.2-1.93,1.6-9.93,7.55-19.88,15.09-29.79,22.66-1.13.87-2.2,1.93-3.04,3.09-25.28,35-50.54,70.02-75.78,105.04-1.22,1.7-2.36,3.45-3.7,5.41-25.14-34.83-50.15-69.47-75.24-104.26h0Z"/>
      <path class="st0" d="M249.64,626.3c-8.43,8.51-16.74,16.92-25.35,25.63-2.62-6.27-5.08-11.99-7.32-17.76-.25-.64.45-1.95,1.07-2.59,7.17-7.28,14.41-14.48,21.62-21.7,8.02-8.02,16.08-16.02,24.06-24.08,1.11-1.11,1.91-1.46,3.49-.73,4.71,2.15,9.53,4.03,14.31,6.03.72.31,1.41.69,2.12,1.03-11.39,11.45-22.64,22.76-34.02,34.19h.02s0-.02,0-.02Z"/>
      <path class="st0" d="M57.79,489.87c-3.41-1.33-6.62-2.61-9.66-3.81,19.52-19.66,39.01-39.28,58.61-59.04,2.45,5.55,4.9,10.98,7.16,16.49.26.62-.37,1.94-.97,2.55-9.68,9.79-19.43,19.53-29.18,29.26-5.45,5.45-10.92,10.84-16.32,16.34-1.08,1.11-2.02,1.3-3.39.69-1.99-.9-4.05-1.63-6.25-2.49h0Z"/>
      <path class="st0" d="M471.61,627.48c.04-.06.19-.13.24-.17,4.07-3.15,8.25-3.29,12.53-.39.73.49,1.45,1.01,2.31,1.83.14,7.22.11,14.11.21,20.99.02,1.7-.53,2.26-2.22,2.22-4.29-.1-8.59-.08-12.88,0-1.63.03-2.08-.58-2.06-2.14.08-4.62-.03-9.23.04-13.85.04-2.49.31-4.97.49-7.47"/>
      <path class="st0" d="M388.05,628.97c2.01-2.42,3.93-4.71,6.19-7.42,0,4.43.27,8.37-.13,12.24-.16,1.54-1.85,2.92-2.57,3.97.96,2.55,1.97,4.83,2.63,7.22.19.69-.41,1.87-1.03,2.47-2.45,2.36-5.04,4.56-7.69,6.93-2.7-2.38-5.41-4.69-8-7.08-1.17-1.07-.99-4.05.22-5.55,3.41-4.22,6.85-8.41,10.38-12.77h0Z"/>
      <path class="st0" d="M107.49,652.06c2.42-.14,4.93-.1,7.46-.1h102.7c0-.74,0-1.27.11-1.92.5.72.9,1.56,1.43,2.72h-3.22c-35.05,0-70.09.01-105.14,0-1.09,0-2.18-.34-3.35-.7h.01Z"/>
      <path class="st0" d="M260.43,628.56c.17,6.95.22,14,.12,21.04-.02,1.79.49,2.37,2.32,2.37,19.51-.06,39-.03,58.51-.04.71,0,1.42-.22,2.3-.41.64,1.73-.76,1.22-1.57,1.22-5.83.04-11.67.03-17.5.04h-44.7c0-5.69-.03-11.18.01-16.67.02-2.49.22-4.97.5-7.54h.01Z"/>
      <path class="st0" d="M492.25,626.81c.26.58.82,1.38.83,2.2.08,6.87.1,13.76,0,20.63-.02,1.83.57,2.38,2.36,2.32,4.2-.11,8.41-.11,12.62,0,1.73.04,2.2-.58,2.2-2.25-.06-8.99.01-17.97-.08-26.95-.01-1.06-.71-2.2-1.34-3.15-.85-1.24-1.97-2.31-2.97-3.64,1.52,1.27,3.08,2.66,4.54,4.16.39.41.66,1.13.66,1.7.02,10.04-.01,20.09-.04,30.13,0,.14-.11.29-.23.61h-18.48c0-8.47,0-17.02-.04-25.79h-.01v.03h-.02Z"/>
      <path class="st0" d="M470.1,628.56c0,2.45-.27,4.92-.31,7.42-.08,4.62.03,9.23-.04,13.85-.02,1.55.43,2.16,2.06,2.14,4.29-.08,8.59-.1,12.88,0,1.7.04,2.25-.51,2.22-2.22-.08-6.89-.19-13.88-.21-20.99.29.37.97,1.07.98,1.67.06,7.13.02,14.25,0,21.39,0,.23-.13.45-.24.8h-18.28c0-7.18-.02-14.3.03-21.41,0-.87.48-1.75.92-2.65h-.01s0,0,0,0Z"/>
      <path class="st0" d="M45.53,490.62c.13,24.02.11,47.92.08,71.83,0,8.99-.02,17.99-.04,27.23-.21-.49-.56-1.23-.56-1.98-.02-31.88-.02-63.77,0-95.67,0-.51.24-1.01.51-1.4h.01Z"/>
      <path class="st0" d="M69.14,497.8c.29.41.78,1.03.78,1.65.04,11.62.03,23.23.02,34.84,0,.38-.19.76-.46,1.27-.23-12.43-.29-24.99-.34-37.76h0Z"/>
      <path class="st0" d="M475.47,610.85c-.29-.49-.69-1.22-.68-1.93.01-2.82.16-5.62.41-8.54.22,3.35.27,6.8.27,10.47h0Z"/>
      <path class="st0" d="M323.94,557.34c-.14-2.63-.23-5.45-.19-8.41.17,2.64.21,5.43.19,8.41Z"/>
      <path class="st0" d="M323.94,544.2c-.08-1.73-.11-3.64-.08-5.55,0-.03.64-.04,1.01.08-.26.45-.78.73-.8,1.04-.08,1.41-.04,2.82-.11,4.42h-.02Z"/>
      <path class="st0" d="M475.44,596.27c-.16-.91-.26-2.02-.21-3.22.19.95.23,1.98.21,3.22Z"/>
      <path class="st0" d="M475.47,577.31c-.15-.31-.24-.78-.2-1.32.17.35.22.74.2,1.32Z"/>
      <path class="st0" d="M323.93,547.7c-.12-.19-.19-.46-.15-.8.13.19.17.46.15.8Z"/>
      <path class="st0" d="M474.94,619.46c-.06-.12.02-.29.25-.5.06.12-.02.29-.25.5Z"/>
    </g>
    <g>
      <path class="st3" d="M718.59,619.08c-20.8,23.49-60.83,23.86-80.28,1.01-20.59-24.18-10.07-61.45,20.45-70.8,21.55-6.61,41.7-3.94,58.3,12.85,6.31,6.36,10.19,15.65,9.77,22.41-6.63,0-13.33.15-20-.15-1.1-.05-2.51-1.9-3.09-3.22-5.13-11.86-14.96-17.54-29.11-16.62-11.24.73-20.58,8.48-23.71,19.69-4,14.37,4.09,28.83,18.47,33,15.5,4.49,31.1-3.25,35.14-17.75,1.04-3.72.93-7.77,1.34-11.48h22.08c.94,11.89-2.31,21.87-9.35,31.06h-.01Z"/>
      <path class="st3" d="M1005.45,635.86c-17.71,3.74-34.33,1.73-50.1-6.39-5.28-2.72-5.32-3.08-2.59-8.39,1.82-3.52,3.72-7,5.69-10.69,10.92,6.65,22.18,10.3,34.58,9.56,2.58-.15,5.19-.65,7.67-1.38,3.47-1.01,6.71-3.31,6.04-7.05-.45-2.52-2.94-5.55-5.31-6.68-4.38-2.07-9.35-2.86-14.05-4.27-7.48-2.26-15.27-3.84-22.35-7.03-18.33-8.26-14.2-31.97-2.44-39.61,11.7-7.59,24.48-9.05,37.64-7.31,7.5.99,14.74,3.95,22.06,6.16,2.51.76,3.25,2.37,1.94,4.98-2.07,4.09-3.85,8.33-5.66,12.3-6.85-2.07-13.28-4.73-19.97-5.8-5.32-.86-11.02-.19-16.42.6-3.77.56-6.91,3.05-7.1,7.42-.18,4.36,3.03,6.29,6.55,7.27,8.28,2.29,16.69,4.12,25,6.36,6.89,1.87,13.63,4.39,18.16,10.26,9.94,12.91,4.16,30.86-11.91,37.43-2.27.92-4.69,1.46-7.42,2.27h-.01Z"/>
      <path class="st0" d="M964.47,480.76c-.4,19.17,13.18,30.84,30.76,26.67,9.35-2.22,14.79-8.55,17.16-17.68.4-1.53.61-3.11.96-4.88h19.66c-.87,15.65-7.74,27.5-21.4,34.35-17.23,8.63-34.58,8.04-50.67-3.18-13.43-9.36-19.27-26.88-15.08-42.79,4.43-16.78,18.09-28.42,35.86-30.5,8.42-.98,16.67-.42,24.67,2.69,15.95,6.19,24.42,17.97,26.52,35.17h-19.75c-1.35-7.54-4.53-14.15-11.51-18.31-5.21-3.1-10.87-3.75-16.74-3.1-10.86,1.2-18.56,9.22-20.41,21.59v-.02h-.03Z"/>
      <path class="st3" d="M808.86,572.63c-13.45-13.68-40.82-10.01-47,9.78-.28.9-1.53,2.13-2.36,2.15-6.68.17-13.36.1-20.49.1.64-7.72,3.77-13.66,7.75-19.27,19.44-27.44,69.8-25.05,86.35,4.11,14.15,24.92,1.68,56.15-26,64.46-6.13,1.84-12.6,2.51-18.93,3.7-.25-.49-.49-.96-.73-1.45,3.01-5.92,5.94-11.88,9.07-17.73.49-.92,1.87-1.48,2.93-1.98,17.92-8.22,22.31-28.12,9.37-43.87h.04Z"/>
      <path class="st0" d="M859.22,483.3c-.07-.52-.13-1.05.19-2.03.5-11.98.62-23.5.69-35.02,0-.54-.57-1.07-.89-1.6,7.96-2.88,16.09-.98,21.03,4.95,11.19,13.43,22.38,26.87,34.26,41.11v-46.84c6.68,0,12.72,0,18.64.67-.25,2.43-.47,4.17-.47,5.92-.02,22.01-.15,44.02.1,66.03.05,4.59-1.41,5.83-5.72,5.53-2.93-.2-5.92.5-8.88.81-1.48-1.36-3.13-2.58-4.41-4.11-10.75-12.86-21.44-25.79-32.17-38.69-1.01-1.21-2.19-2.29-3.9-3.2-.77,11.14-.98,22.06-1.04,32.97-.07,12.55,0,12.44-12.48,12.19-3.3-.07-4.06-1.28-4-4.29.14-9.81.1-19.62,0-29.44,0-1.67-.6-3.33-.93-5v.03h-.02Z"/>
      <path class="st0" d="M827.35,484.34c5.92.3,11.36.57,17,.88v37.68h-19.02v-31.76h-35.43v31.87h-19.36v-79h19.03v30.11h35.43v-30.25h19.2v36.75c-13.08.61-26.32,1.23-39.55,1.85,0,.3,0,.61-.02.91,7.42.32,14.83.64,22.72.96h0Z"/>
      <path class="st0" d="M758.98,453.15c1.16,1.31,2.04,2.37,3.05,3.57-4.27,3.92-8.28,7.61-12.27,11.28-13.9-13.8-31.58-10.01-39.02-1.56-8.55,9.71-8.06,25.93,1.38,35.1,10.23,9.94,25.54,8.82,37.63-2.98,4.14,3.69,8.3,7.39,12.62,11.24-9.57,11.47-21.89,15.75-36.13,14.91-16.79-.99-30.29-8.07-37.35-23.88-6.89-15.46-5.25-30.57,5.66-43.93,14.51-17.77,45.49-19.55,64.45-3.74h-.02Z"/>
      <path class="st0" d="M634.51,466.91c.16,2.69.31,5.4.49,8.46h37.39v14.57h-37.21v17.77h44.1v15.28h-64.05v-4.78c0-16.74-.72-33.5-.66-50.24v-4.48"/>
      <path class="st0" d="M601.94,459.4h-20.15v63.51h-19.49v-63.33h-25.64v-15.67h70.72v15.5h-5.45.01Z"/>
      <path class="st3" d="M883.51,570.24c0,14.97.02,29.45-.08,43.94,0,1.63-.3,3.84-1.35,4.83-7.07,6.33-13.76,11.86-21.39,18.64,0-31.06-.08-60.71-.08-91.36h22.91v23.96h0Z"/>
      <path class="st3" d="M618.37,545.96"/>
      <path class="st3" d="M616.26,545.96c-1.36,1.16-19.2,18.24-21.15,18.12-3.79-.27-6.63.82-9.43,3.5-5.79,5.51-11.98,10.58-18.81,16.54v-20.38c-9.91,0-19.17,0-28.99-.3-.84-.51-1.13-.72-1.41-.93-.04-4.84.07-11.18.48-16.47"/>
      <path class="st3" d="M760.34,590.91c2.02,18.77,8.99,24.88,32.22,28.12-3.72,5.66-7.22,11.12-10.89,16.45-.42.6-1.83.81-2.74.73-22.46-2.07-40.74-21.84-40.79-43.81,0-3.45.76-5.02,4.55-4.84,4.87.24,9.76.08,14.63-.18,2.54-.14,3.28.86,3.01,3.54h0Z"/>
      <path class="st3" d="M589.69,569.44c.1,22.85.1,45.33.1,68.22h-22.65c-.14-1.11-.4-2.34-.4-3.54-.03-14.15-.15-28.29.1-42.43.04-2.22,1.28-4.96,2.89-6.51,5.44-5.22,11.27-10.04,17.01-14.94.75-.63,1.9-.78,2.95-.79h0Z"/>
      <path class="st3" d="M883.72,623.47c1.07-1.01,4.07-3.89,5.44-3.9,17.35-.1,34.7-.04,52.04,0,.28,0,.57.24,1.63.72-3.3,5.65-6.5,11.28-9.9,16.77-.43.69-1.99.61-3.01.61-20.06.05-41.58,0-62.23,0"/>
      <path class="st0" d="M631.06,461.75c-4.66.13-9.32.18-14.47.22-.49-.03-2.05.03-2.02.03v-18.05h63.27v15.01c-12.86,0-25.52-.08-38.18.1"/>
      <path class="st3" d="M617.82,563.87h-15.04c1.07-1.33,1.81-2.24,2.81-3.4,3.8-4.1,9.22-10.66,12.77-14.51"/>
      <path class="st0" d="M859.1,483.73c.44,1.23,1.03,2.89,1.05,4.56.08,9.81.13,19.62,0,29.44-.04,3.01.71,4.22,4,4.29,12.47.25,12.42.37,12.48-12.19.07-10.92.27-21.83.72-33,.31,15.1.31,30.47.31,46.08h-18.66c0-12.89,0-25.81.12-39.17h-.02Z"/>
      <path class="st0" d="M918.59,522.96c2.52-.43,5.51-1.13,8.45-.93,4.31.3,5.78-.94,5.72-5.53-.25-22.01-.12-44.02-.1-66.03,0-1.75.24-3.5.63-5.53.37,9.8.51,19.91.54,30,.04,15.87,0,31.74,0,48.16-5.03,0-9.92,0-15.26-.12h0l.02-.02Z"/>
      <path class="st0" d="M859.07,445.06c.45.1,1.03.64,1.03,1.18-.05,11.53-.18,23.04-.57,34.85-.39-11.68-.49-23.63-.45-36.02h-.01Z"/>
      <path class="st3" d="M536.52,562.78c.25-.08.52.12.92.57-.22.07-.54-.1-.92-.57Z"/>
    </g>
  </g>
  <g class="st2">
    <text class="st1" transform="translate(141.82 708.59)"><tspan x="0" y="0">Engineered for Precision. Built for Performance.</tspan></text>
  </g>
</svg>